<svg width="74" height="74" viewBox="0 0 74 74" fill="none" xmlns="http://www.w3.org/2000/svg">
<path d="M64.75 49.3333V24.6667C64.7489 23.5853 64.4634 22.5232 63.9222 21.5869C63.3811 20.6507 62.6032 19.8732 61.6667 19.3325L40.0833 6.99917C39.1459 6.45793 38.0825 6.17299 37 6.17299C35.9175 6.17299 34.8541 6.45793 33.9167 6.99917L12.3333 19.3325C11.3968 19.8732 10.6189 20.6507 10.0778 21.5869C9.53657 22.5232 9.25111 23.5853 9.25 24.6667V49.3333C9.25111 50.4147 9.53657 51.4768 10.0778 52.4131C10.6189 53.3493 11.3968 54.1268 12.3333 54.6675L33.9167 67.0008C34.8541 67.5421 35.9175 67.827 37 67.827C38.0825 67.827 39.1459 67.5421 40.0833 67.0008L61.6667 54.6675C62.6032 54.1268 63.3811 53.3493 63.9222 52.4131C64.4634 51.4768 64.7489 50.4147 64.75 49.3333Z" stroke="#1E1E1E" stroke-width="4" stroke-linecap="round" stroke-linejoin="round"/>
</svg>
